<svg id="Layer_1" data-name="Layer 1" xmlns="http://www.w3.org/2000/svg" xmlns:xlink="http://www.w3.org/1999/xlink" viewBox="0 0 670.46 307.83"><defs><clipPath id="clip-path"><rect x="-3.52" y="-7.16" width="677.5" height="315.54" fill="none"/></clipPath><linearGradient id="linear-gradient" x1="183.19" y1="-110.48" x2="487.26" y2="416.18" gradientUnits="userSpaceOnUse"><stop offset="0" stop-color="#1b5b8f" stop-opacity="0.9"/><stop offset="1" stop-color="#001411" stop-opacity="0.95"/></linearGradient><clipPath id="clip-path-2"><rect x="-164.77" y="-603.3" width="1000" height="465.74" fill="none"/></clipPath><image id="image" width="3128" height="2008" xlink:href="../../year1/SIDE%20HUSTLE/javascript%20playlist/JavaScript%20Practice/constructor%20function.png"/></defs><title>drill</title><g clip-path="url(#clip-path)"><use transform="translate(-98.12 -40.08) scale(0.28)" xlink:href="#image"/></g><rect x="-3.52" y="-2.68" width="677.5" height="311.06" fill="url(#linear-gradient)"/><text transform="translate(116.64 159.18)" font-size="66.24" fill="#fff" font-family="Cairo-Bold, Cairo" font-weight="700">J<tspan x="19.94" y="0" letter-spacing="-0.01em">a</tspan><tspan x="53.79" y="0" letter-spacing="0em">v</tspan><tspan x="87.04" y="0" letter-spacing="0em">aScri</tspan><tspan x="227.8" y="0" letter-spacing="0em">p</tspan><tspan x="263.71" y="0">t Drill</tspan></text><text transform="translate(201.94 191.09)" font-size="16.56" fill="#02f6ff" font-family="Cairo-Medium, Cairo" font-weight="500">The Library <tspan x="81.69" y="0" letter-spacing="-0.01em">f</tspan><tspan x="87.06" y="0">or J</tspan><tspan x="110.08" y="0" letter-spacing="-0.01em">a</tspan><tspan x="118.24" y="0" letter-spacing="0em">v</tspan><tspan x="126.19" y="0" letter-spacing="0em">aScri</tspan><tspan x="160.29" y="0" letter-spacing="0em">p</tspan><tspan x="169.01" y="0">t Mastery</tspan></text><path d="M202.33,285.26H29c-3.88,0-5.92-3.95-5.92-8.78s2-8.79,4.54-8.79H201c2.5,0,4.55,4,4.55,8.79S203.45,285.26,202.33,285.26Z" fill="none" stroke="#fff" stroke-miterlimit="10" stroke-dasharray="5 5"/><path d="M627.14,283.86h-12.7a1.91,1.91,0,0,1-2.12-2.11V256.33a1.9,1.9,0,0,1,2.1-2.09h25.43a1.9,1.9,0,0,1,2.1,2.09v25.46a1.9,1.9,0,0,1-2.08,2.07Zm2.83-5.64a5.06,5.06,0,0,0,1.45,1.81,5.79,5.79,0,0,0,6.1.28,3.14,3.14,0,0,0,1.46-2,3.76,3.76,0,0,0-1.84-4.48c-.82-.46-1.7-.81-2.54-1.22a5.47,5.47,0,0,1-1-.62,1.1,1.1,0,0,1-.31-1.23,1.08,1.08,0,0,1,.88-.77,1.69,1.69,0,0,1,1.73.6c.13.15.24.32.37.5l2.07-1.34a3.67,3.67,0,0,0-2.55-2,7,7,0,0,0-2.1-.06,3.26,3.26,0,0,0-2.94,2.42,3.49,3.49,0,0,0,1.08,3.9,12.66,12.66,0,0,0,2.14,1.26c.58.32,1.19.55,1.76.89a1.23,1.23,0,0,1,.56,1.37,1.21,1.21,0,0,1-1,1,2.37,2.37,0,0,1-2.53-.83c-.23-.28-.44-.6-.68-.92Zm-9.88,0,.19.36a4.94,4.94,0,0,0,5.34,2.35,3.29,3.29,0,0,0,2.74-2.56,6.3,6.3,0,0,0,.18-1.57c0-2.92,0-5.85,0-8.78v-.36h-2.82v7.63c0,.49,0,1,0,1.48a1.33,1.33,0,0,1-1.83,1.4,2.54,2.54,0,0,1-1.6-1.29Z" fill="#fcee21"/><path d="M630,278.22l2.08-1.4c.24.32.45.64.68.92a2.37,2.37,0,0,0,2.53.83,1.21,1.21,0,0,0,1-1,1.23,1.23,0,0,0-.56-1.37c-.57-.34-1.18-.57-1.76-.89a12.66,12.66,0,0,1-2.14-1.26,3.49,3.49,0,0,1-1.08-3.9,3.26,3.26,0,0,1,2.94-2.42,7,7,0,0,1,2.1.06,3.67,3.67,0,0,1,2.55,2l-2.07,1.34c-.13-.18-.24-.35-.37-.5a1.69,1.69,0,0,0-1.73-.6,1.08,1.08,0,0,0-.88.77,1.1,1.1,0,0,0,.31,1.23,5.47,5.47,0,0,0,1,.62c.84.41,1.72.76,2.54,1.22a3.76,3.76,0,0,1,1.84,4.48,3.14,3.14,0,0,1-1.46,2,5.79,5.79,0,0,1-6.1-.28A5.06,5.06,0,0,1,630,278.22Z"/><path d="M620.09,278.22l2.2-1.34a2.54,2.54,0,0,0,1.6,1.29,1.33,1.33,0,0,0,1.83-1.4c0-.5,0-1,0-1.48v-7.63h2.82V268c0,2.93,0,5.86,0,8.78a6.3,6.3,0,0,1-.18,1.57,3.29,3.29,0,0,1-2.74,2.56,4.94,4.94,0,0,1-5.34-2.35Z"/><text transform="translate(23.07 260.54)" font-size="8.81" fill="#fff" font-family="Cairo-ExtraBold, Cairo" font-weight="800">GitHub:</text><text transform="translate(33.21 279.18)" font-size="8.13" fill="#fff" font-family="Cairo-Bold, Cairo" font-weight="700"><tspan letter-spacing="0em">h</tspan><tspan x="4.48" y="0">ttps:/</tspan><tspan x="24.39" y="0" letter-spacing="-0.03em">/</tspan><tspan x="27.95" y="0">github.</tspan><tspan x="52.53" y="0" letter-spacing="0em">c</tspan><tspan x="56.13" y="0" letter-spacing="0em">om/Sinach</tspan><tspan x="94.59" y="0" letter-spacing="-0.01em">P</tspan><tspan x="99.39" y="0" letter-spacing="-0.01em">a</tspan><tspan x="103.59" y="0" letter-spacing="0em">t</tspan><tspan x="106.51" y="0" letter-spacing="-0.02em">/</tspan><tspan x="110.17" y="0">J</tspan><tspan x="112.62" y="0" letter-spacing="-0.01em">a</tspan><tspan x="116.77" y="0" letter-spacing="0em">v</tspan><tspan x="120.85" y="0">aScri</tspan><tspan x="138.13" y="0" letter-spacing="0em">p</tspan><tspan x="142.53" y="0" letter-spacing="-0.01em">t</tspan><tspan x="145.34" y="0" letter-spacing="0em">-Drill</tspan></text><text transform="translate(556.15 266.43)" font-size="7.45" fill="#fff" font-family="Cairo-SemiBold, Cairo" font-weight="600">5 <tspan x="5.8" y="0" letter-spacing="0em">N</tspan><tspan x="10.81" y="0" letter-spacing="0em">e</tspan><tspan x="14.58" y="0">w </tspan><tspan x="21.92" y="0" letter-spacing="0em">e</tspan><tspan x="25.69" y="0" letter-spacing="-0.02em">x</tspan><tspan x="28.98" y="0">e</tspan><tspan x="32.78" y="0" letter-spacing="-0.01em">r</tspan><tspan x="35.32" y="0">cises</tspan><tspan x="-2.27" y="7.45" letter-spacing="-0.01em">e</tspan><tspan x="1.48" y="7.45" letter-spacing="-0.01em">v</tspan><tspan x="5.07" y="7.45">ery </tspan><tspan x="16.76" y="7.45" letter-spacing="-0.01em">g</tspan><tspan x="20.58" y="7.45" letter-spacing="0em">ood </tspan><tspan x="34.14" y="7.45" letter-spacing="0em">w</tspan><tspan x="39.81" y="7.45">eek</tspan></text><g clip-path="url(#clip-path-2)"><use transform="translate(-304.41 -651.89) scale(0.41)" xlink:href="#image"/></g></svg>